<mxfile host="65bd71144e">
    <diagram id="iBzwWXTRmxoXelsFR8A0" name="Page-1">
        <mxGraphModel dx="1486" dy="749" grid="1" gridSize="10" guides="1" tooltips="1" connect="1" arrows="1" fold="1" page="1" pageScale="1" pageWidth="827" pageHeight="1169" math="0" shadow="0">
            <root>
                <mxCell id="0"/>
                <mxCell id="1" parent="0"/>
                <mxCell id="39" style="edgeStyle=orthogonalEdgeStyle;rounded=0;orthogonalLoop=1;jettySize=auto;html=1;exitX=0.75;exitY=1;exitDx=0;exitDy=0;entryX=1;entryY=0.5;entryDx=0;entryDy=0;endArrow=none;endFill=0;" parent="1" source="caZqMsB6CSWGhojNG9Ac-1" target="38" edge="1">
                    <mxGeometry relative="1" as="geometry"/>
                </mxCell>
                <mxCell id="90" style="edgeStyle=orthogonalEdgeStyle;rounded=0;orthogonalLoop=1;jettySize=auto;html=1;exitX=1;exitY=0.5;exitDx=0;exitDy=0;entryX=0;entryY=0.5;entryDx=0;entryDy=0;endArrow=none;endFill=0;" parent="1" source="caZqMsB6CSWGhojNG9Ac-1" target="89" edge="1">
                    <mxGeometry relative="1" as="geometry">
                        <Array as="points">
                            <mxPoint x="250" y="100"/>
                            <mxPoint x="310" y="100"/>
                            <mxPoint x="310" y="160"/>
                        </Array>
                    </mxGeometry>
                </mxCell>
                <mxCell id="123" style="edgeStyle=orthogonalEdgeStyle;rounded=0;orthogonalLoop=1;jettySize=auto;html=1;exitX=1;exitY=1;exitDx=0;exitDy=0;entryX=0;entryY=0.5;entryDx=0;entryDy=0;endArrow=none;endFill=0;" parent="1" source="caZqMsB6CSWGhojNG9Ac-1" target="135" edge="1">
                    <mxGeometry relative="1" as="geometry">
                        <Array as="points">
                            <mxPoint x="290" y="110"/>
                            <mxPoint x="290" y="230"/>
                        </Array>
                        <mxPoint x="380" y="229.9999999999999" as="targetPoint"/>
                    </mxGeometry>
                </mxCell>
                <mxCell id="caZqMsB6CSWGhojNG9Ac-1" value="Paciente" style="whiteSpace=wrap;html=1;align=center;fillColor=#008a00;strokeColor=#FFFFFF;fontColor=#ffffff;shadow=0;glass=0;sketch=0;strokeWidth=3;" parent="1" vertex="1">
                    <mxGeometry x="150" y="70" width="100" height="40" as="geometry"/>
                </mxCell>
                <mxCell id="27" style="edgeStyle=orthogonalEdgeStyle;rounded=0;orthogonalLoop=1;jettySize=auto;html=1;exitX=0.5;exitY=1;exitDx=0;exitDy=0;entryX=0.25;entryY=0;entryDx=0;entryDy=0;endArrow=none;endFill=0;" parent="1" source="3" target="caZqMsB6CSWGhojNG9Ac-1" edge="1">
                    <mxGeometry relative="1" as="geometry"/>
                </mxCell>
                <mxCell id="3" value="&lt;u&gt;CPF&lt;/u&gt;" style="ellipse;whiteSpace=wrap;html=1;" parent="1" vertex="1">
                    <mxGeometry x="110" width="80" height="30" as="geometry"/>
                </mxCell>
                <mxCell id="28" style="edgeStyle=orthogonalEdgeStyle;rounded=0;orthogonalLoop=1;jettySize=auto;html=1;entryX=0.5;entryY=0;entryDx=0;entryDy=0;endArrow=none;endFill=0;" parent="1" source="16" target="caZqMsB6CSWGhojNG9Ac-1" edge="1">
                    <mxGeometry relative="1" as="geometry"/>
                </mxCell>
                <mxCell id="16" value="Nome" style="ellipse;whiteSpace=wrap;html=1;" parent="1" vertex="1">
                    <mxGeometry x="220" width="80" height="30" as="geometry"/>
                </mxCell>
                <mxCell id="26" style="edgeStyle=orthogonalEdgeStyle;rounded=0;orthogonalLoop=1;jettySize=auto;html=1;exitX=1;exitY=0.5;exitDx=0;exitDy=0;entryX=0;entryY=0.25;entryDx=0;entryDy=0;endArrow=none;endFill=0;" parent="1" source="20" target="caZqMsB6CSWGhojNG9Ac-1" edge="1">
                    <mxGeometry relative="1" as="geometry">
                        <Array as="points">
                            <mxPoint x="80" y="30"/>
                            <mxPoint x="115" y="30"/>
                            <mxPoint x="115" y="80"/>
                        </Array>
                    </mxGeometry>
                </mxCell>
                <mxCell id="20" value="DataNasc" style="ellipse;whiteSpace=wrap;html=1;" parent="1" vertex="1">
                    <mxGeometry width="80" height="30" as="geometry"/>
                </mxCell>
                <mxCell id="31" style="edgeStyle=orthogonalEdgeStyle;rounded=0;orthogonalLoop=1;jettySize=auto;html=1;exitX=1;exitY=0.5;exitDx=0;exitDy=0;entryX=0;entryY=0.75;entryDx=0;entryDy=0;endArrow=none;endFill=0;" parent="1" source="21" target="caZqMsB6CSWGhojNG9Ac-1" edge="1">
                    <mxGeometry relative="1" as="geometry">
                        <Array as="points">
                            <mxPoint x="100" y="55"/>
                            <mxPoint x="100" y="100"/>
                        </Array>
                    </mxGeometry>
                </mxCell>
                <mxCell id="21" value="Idade" style="ellipse;whiteSpace=wrap;html=1;dashed=1;" parent="1" vertex="1">
                    <mxGeometry y="40" width="80" height="30" as="geometry"/>
                </mxCell>
                <mxCell id="34" style="edgeStyle=orthogonalEdgeStyle;rounded=0;orthogonalLoop=1;jettySize=auto;html=1;exitX=1;exitY=0.5;exitDx=0;exitDy=0;entryX=0.5;entryY=1;entryDx=0;entryDy=0;endArrow=none;endFill=0;" parent="1" source="22" target="caZqMsB6CSWGhojNG9Ac-1" edge="1">
                    <mxGeometry relative="1" as="geometry">
                        <Array as="points">
                            <mxPoint x="80" y="150"/>
                            <mxPoint x="200" y="150"/>
                        </Array>
                    </mxGeometry>
                </mxCell>
                <mxCell id="22" value="Genero" style="ellipse;whiteSpace=wrap;html=1;" parent="1" vertex="1">
                    <mxGeometry y="120" width="80" height="30" as="geometry"/>
                </mxCell>
                <mxCell id="32" style="edgeStyle=orthogonalEdgeStyle;rounded=0;orthogonalLoop=1;jettySize=auto;html=1;exitX=1;exitY=0.5;exitDx=0;exitDy=0;entryX=0.25;entryY=1;entryDx=0;entryDy=0;endArrow=none;endFill=0;" parent="1" source="23" target="caZqMsB6CSWGhojNG9Ac-1" edge="1">
                    <mxGeometry relative="1" as="geometry">
                        <Array as="points">
                            <mxPoint x="80" y="110"/>
                            <mxPoint x="115" y="110"/>
                            <mxPoint x="115" y="130"/>
                            <mxPoint x="175" y="130"/>
                        </Array>
                    </mxGeometry>
                </mxCell>
                <mxCell id="23" value="Telefone" style="ellipse;whiteSpace=wrap;html=1;" parent="1" vertex="1">
                    <mxGeometry y="80" width="80" height="30" as="geometry"/>
                </mxCell>
                <mxCell id="29" style="edgeStyle=orthogonalEdgeStyle;rounded=0;orthogonalLoop=1;jettySize=auto;html=1;exitX=0;exitY=0.5;exitDx=0;exitDy=0;entryX=0.75;entryY=0;entryDx=0;entryDy=0;endArrow=none;endFill=0;" parent="1" source="24" target="caZqMsB6CSWGhojNG9Ac-1" edge="1">
                    <mxGeometry relative="1" as="geometry">
                        <Array as="points">
                            <mxPoint x="334" y="40"/>
                            <mxPoint x="280" y="40"/>
                            <mxPoint x="280" y="60"/>
                            <mxPoint x="225" y="60"/>
                        </Array>
                    </mxGeometry>
                </mxCell>
                <mxCell id="24" value="Email" style="ellipse;whiteSpace=wrap;html=1;" parent="1" vertex="1">
                    <mxGeometry x="333.5" width="80" height="30" as="geometry"/>
                </mxCell>
                <mxCell id="30" style="edgeStyle=orthogonalEdgeStyle;rounded=0;orthogonalLoop=1;jettySize=auto;html=1;exitX=0;exitY=0.5;exitDx=0;exitDy=0;entryX=1;entryY=0.25;entryDx=0;entryDy=0;endArrow=none;endFill=0;" parent="1" source="25" target="caZqMsB6CSWGhojNG9Ac-1" edge="1">
                    <mxGeometry relative="1" as="geometry"/>
                </mxCell>
                <mxCell id="25" value="DataCadastro" style="ellipse;whiteSpace=wrap;html=1;" parent="1" vertex="1">
                    <mxGeometry x="314" y="70" width="100" height="40" as="geometry"/>
                </mxCell>
                <mxCell id="56" style="edgeStyle=orthogonalEdgeStyle;rounded=0;orthogonalLoop=1;jettySize=auto;html=1;exitX=1;exitY=0.5;exitDx=0;exitDy=0;entryX=1;entryY=0.5;entryDx=0;entryDy=0;endArrow=none;endFill=0;" parent="1" source="37" target="55" edge="1">
                    <mxGeometry relative="1" as="geometry"/>
                </mxCell>
                <mxCell id="115" style="edgeStyle=orthogonalEdgeStyle;rounded=0;orthogonalLoop=1;jettySize=auto;html=1;exitX=1;exitY=0.25;exitDx=0;exitDy=0;entryX=0;entryY=0.5;entryDx=0;entryDy=0;endArrow=none;endFill=0;" parent="1" source="37" target="113" edge="1">
                    <mxGeometry relative="1" as="geometry">
                        <Array as="points">
                            <mxPoint x="320" y="270"/>
                            <mxPoint x="320" y="440"/>
                        </Array>
                    </mxGeometry>
                </mxCell>
                <mxCell id="37" value="Endereco" style="whiteSpace=wrap;html=1;align=center;fillColor=#008a00;strokeColor=#FFFFFF;fontColor=#ffffff;shadow=0;glass=0;sketch=0;strokeWidth=3;" parent="1" vertex="1">
                    <mxGeometry x="150" y="260" width="100" height="40" as="geometry"/>
                </mxCell>
                <object label="" Farmacia_ID="0..*" id="40">
                    <mxCell style="edgeStyle=orthogonalEdgeStyle;rounded=0;orthogonalLoop=1;jettySize=auto;html=1;exitX=0.5;exitY=1;exitDx=0;exitDy=0;entryX=0.5;entryY=0;entryDx=0;entryDy=0;endArrow=none;endFill=0;" parent="1" source="38" target="37" edge="1">
                        <mxGeometry relative="1" as="geometry"/>
                    </mxCell>
                </object>
                <mxCell id="38" value="Possui" style="rhombus;whiteSpace=wrap;html=1;fillColor=#786060;" parent="1" vertex="1">
                    <mxGeometry x="160" y="180" width="80" height="40" as="geometry"/>
                </mxCell>
                <mxCell id="41" value="1,1" style="text;html=1;strokeColor=none;fillColor=none;align=center;verticalAlign=middle;whiteSpace=wrap;rounded=0;" parent="1" vertex="1">
                    <mxGeometry x="160" y="220" width="40" height="20" as="geometry"/>
                </mxCell>
                <mxCell id="53" style="edgeStyle=orthogonalEdgeStyle;rounded=0;orthogonalLoop=1;jettySize=auto;html=1;exitX=1;exitY=0.5;exitDx=0;exitDy=0;entryX=0.75;entryY=1;entryDx=0;entryDy=0;endArrow=none;endFill=0;" parent="1" source="45" target="37" edge="1">
                    <mxGeometry relative="1" as="geometry">
                        <Array as="points">
                            <mxPoint x="80" y="330"/>
                            <mxPoint x="225" y="330"/>
                        </Array>
                    </mxGeometry>
                </mxCell>
                <mxCell id="45" value="Complemento" style="ellipse;whiteSpace=wrap;html=1;" parent="1" vertex="1">
                    <mxGeometry y="340" width="90" height="30" as="geometry"/>
                </mxCell>
                <mxCell id="54" style="edgeStyle=orthogonalEdgeStyle;rounded=0;orthogonalLoop=1;jettySize=auto;html=1;exitX=1;exitY=0.5;exitDx=0;exitDy=0;entryX=0.9;entryY=1;entryDx=0;entryDy=0;entryPerimeter=0;endArrow=none;endFill=0;" parent="1" source="46" target="37" edge="1">
                    <mxGeometry relative="1" as="geometry"/>
                </mxCell>
                <mxCell id="46" value="CEP" style="ellipse;whiteSpace=wrap;html=1;" parent="1" vertex="1">
                    <mxGeometry x="110" y="340" width="80" height="30" as="geometry"/>
                </mxCell>
                <mxCell id="58" style="edgeStyle=orthogonalEdgeStyle;rounded=0;orthogonalLoop=1;jettySize=auto;html=1;exitX=1;exitY=0.5;exitDx=0;exitDy=0;entryX=0;entryY=0.75;entryDx=0;entryDy=0;endArrow=none;endFill=0;" parent="1" source="47" target="37" edge="1">
                    <mxGeometry relative="1" as="geometry">
                        <Array as="points">
                            <mxPoint x="100" y="275"/>
                            <mxPoint x="100" y="290"/>
                        </Array>
                    </mxGeometry>
                </mxCell>
                <mxCell id="47" value="Logradouro" style="ellipse;whiteSpace=wrap;html=1;" parent="1" vertex="1">
                    <mxGeometry y="260" width="80" height="30" as="geometry"/>
                </mxCell>
                <mxCell id="52" style="edgeStyle=orthogonalEdgeStyle;rounded=0;orthogonalLoop=1;jettySize=auto;html=1;exitX=1;exitY=0.5;exitDx=0;exitDy=0;entryX=0.5;entryY=1;entryDx=0;entryDy=0;endArrow=none;endFill=0;" parent="1" source="48" target="37" edge="1">
                    <mxGeometry relative="1" as="geometry">
                        <Array as="points">
                            <mxPoint x="200" y="315"/>
                        </Array>
                    </mxGeometry>
                </mxCell>
                <mxCell id="48" value="Numero" style="ellipse;whiteSpace=wrap;html=1;" parent="1" vertex="1">
                    <mxGeometry y="300" width="80" height="30" as="geometry"/>
                </mxCell>
                <mxCell id="59" style="edgeStyle=orthogonalEdgeStyle;rounded=0;orthogonalLoop=1;jettySize=auto;html=1;exitX=1;exitY=0.5;exitDx=0;exitDy=0;entryX=0;entryY=0.5;entryDx=0;entryDy=0;endArrow=none;endFill=0;" parent="1" source="49" target="37" edge="1">
                    <mxGeometry relative="1" as="geometry">
                        <Array as="points">
                            <mxPoint x="120" y="225"/>
                            <mxPoint x="120" y="280"/>
                        </Array>
                    </mxGeometry>
                </mxCell>
                <mxCell id="49" value="Endereco_ID" style="ellipse;whiteSpace=wrap;html=1;fontStyle=4" parent="1" vertex="1">
                    <mxGeometry y="210" width="80" height="30" as="geometry"/>
                </mxCell>
                <mxCell id="63" style="edgeStyle=orthogonalEdgeStyle;rounded=0;orthogonalLoop=1;jettySize=auto;html=1;exitX=0.5;exitY=1;exitDx=0;exitDy=0;entryX=0.5;entryY=0;entryDx=0;entryDy=0;endArrow=none;endFill=0;" parent="1" source="55" target="57" edge="1">
                    <mxGeometry relative="1" as="geometry"/>
                </mxCell>
                <mxCell id="55" value="Possui" style="rhombus;whiteSpace=wrap;html=1;fillColor=#786060;" parent="1" vertex="1">
                    <mxGeometry x="150" y="400" width="80" height="40" as="geometry"/>
                </mxCell>
                <mxCell id="71" style="edgeStyle=orthogonalEdgeStyle;rounded=0;orthogonalLoop=1;jettySize=auto;html=1;exitX=0.75;exitY=0;exitDx=0;exitDy=0;entryX=0;entryY=0.5;entryDx=0;entryDy=0;endArrow=none;endFill=0;" parent="1" source="57" target="70" edge="1">
                    <mxGeometry relative="1" as="geometry"/>
                </mxCell>
                <mxCell id="57" value="Cidade" style="whiteSpace=wrap;html=1;align=center;fillColor=#008a00;strokeColor=#FFFFFF;fontColor=#ffffff;shadow=0;glass=0;sketch=0;strokeWidth=3;" parent="1" vertex="1">
                    <mxGeometry x="140" y="490" width="100" height="40" as="geometry"/>
                </mxCell>
                <mxCell id="65" style="edgeStyle=orthogonalEdgeStyle;rounded=0;orthogonalLoop=1;jettySize=auto;html=1;exitX=1;exitY=0.5;exitDx=0;exitDy=0;entryX=0;entryY=0.75;entryDx=0;entryDy=0;endArrow=none;endFill=0;" parent="1" source="60" target="57" edge="1">
                    <mxGeometry relative="1" as="geometry"/>
                </mxCell>
                <mxCell id="60" value="Nome" style="ellipse;whiteSpace=wrap;html=1;" parent="1" vertex="1">
                    <mxGeometry y="500" width="80" height="30" as="geometry"/>
                </mxCell>
                <mxCell id="64" style="edgeStyle=orthogonalEdgeStyle;rounded=0;orthogonalLoop=1;jettySize=auto;html=1;exitX=1;exitY=0.5;exitDx=0;exitDy=0;entryX=0;entryY=0.25;entryDx=0;entryDy=0;endArrow=none;endFill=0;" parent="1" source="62" target="57" edge="1">
                    <mxGeometry relative="1" as="geometry"/>
                </mxCell>
                <mxCell id="62" value="Cidade_ID" style="ellipse;whiteSpace=wrap;html=1;fontStyle=4" parent="1" vertex="1">
                    <mxGeometry y="450" width="80" height="30" as="geometry"/>
                </mxCell>
                <mxCell id="67" value="Estado" style="whiteSpace=wrap;html=1;align=center;fillColor=#008a00;strokeColor=#FFFFFF;fontColor=#ffffff;shadow=0;glass=0;sketch=0;strokeWidth=3;" parent="1" vertex="1">
                    <mxGeometry x="340" y="490" width="100" height="40" as="geometry"/>
                </mxCell>
                <mxCell id="75" style="edgeStyle=orthogonalEdgeStyle;rounded=0;orthogonalLoop=1;jettySize=auto;html=1;exitX=0.5;exitY=0;exitDx=0;exitDy=0;entryX=0;entryY=0.5;entryDx=0;entryDy=0;endArrow=none;endFill=0;" parent="1" source="68" target="67" edge="1">
                    <mxGeometry relative="1" as="geometry"/>
                </mxCell>
                <mxCell id="68" value="Estado_ID" style="ellipse;whiteSpace=wrap;html=1;fontStyle=4" parent="1" vertex="1">
                    <mxGeometry x="290" y="555" width="80" height="30" as="geometry"/>
                </mxCell>
                <mxCell id="76" style="edgeStyle=orthogonalEdgeStyle;rounded=0;orthogonalLoop=1;jettySize=auto;html=1;exitX=0.5;exitY=0;exitDx=0;exitDy=0;entryX=1;entryY=0.5;entryDx=0;entryDy=0;endArrow=none;endFill=0;" parent="1" source="69" target="67" edge="1">
                    <mxGeometry relative="1" as="geometry"/>
                </mxCell>
                <mxCell id="69" value="Sigla" style="ellipse;whiteSpace=wrap;html=1;" parent="1" vertex="1">
                    <mxGeometry x="414" y="555" width="80" height="30" as="geometry"/>
                </mxCell>
                <mxCell id="72" style="edgeStyle=orthogonalEdgeStyle;rounded=0;orthogonalLoop=1;jettySize=auto;html=1;exitX=1;exitY=0.5;exitDx=0;exitDy=0;entryX=0.25;entryY=0;entryDx=0;entryDy=0;endArrow=none;endFill=0;" parent="1" source="70" target="67" edge="1">
                    <mxGeometry relative="1" as="geometry"/>
                </mxCell>
                <mxCell id="70" value="Possui" style="rhombus;whiteSpace=wrap;html=1;fillColor=#786060;" parent="1" vertex="1">
                    <mxGeometry x="250" y="440" width="80" height="40" as="geometry"/>
                </mxCell>
                <mxCell id="77" value="Tratamento" style="whiteSpace=wrap;html=1;align=center;fillColor=#008a00;strokeColor=#FFFFFF;fontColor=#ffffff;shadow=0;glass=0;sketch=0;strokeWidth=3;" parent="1" vertex="1">
                    <mxGeometry x="570" y="45" width="100" height="40" as="geometry"/>
                </mxCell>
                <mxCell id="84" style="edgeStyle=orthogonalEdgeStyle;rounded=0;orthogonalLoop=1;jettySize=auto;html=1;exitX=1;exitY=0.5;exitDx=0;exitDy=0;entryX=0;entryY=0;entryDx=0;entryDy=0;endArrow=none;endFill=0;" parent="1" source="78" target="77" edge="1">
                    <mxGeometry relative="1" as="geometry"/>
                </mxCell>
                <mxCell id="78" value="Tratamento_ID" style="ellipse;whiteSpace=wrap;html=1;fontStyle=4" parent="1" vertex="1">
                    <mxGeometry x="440" width="100" height="30" as="geometry"/>
                </mxCell>
                <mxCell id="85" style="edgeStyle=orthogonalEdgeStyle;rounded=0;orthogonalLoop=1;jettySize=auto;html=1;exitX=0.5;exitY=1;exitDx=0;exitDy=0;entryX=0.5;entryY=0;entryDx=0;entryDy=0;endArrow=none;endFill=0;" parent="1" source="79" target="77" edge="1">
                    <mxGeometry relative="1" as="geometry"/>
                </mxCell>
                <mxCell id="79" value="Anotacoes" style="ellipse;whiteSpace=wrap;html=1;" parent="1" vertex="1">
                    <mxGeometry x="580" width="80" height="30" as="geometry"/>
                </mxCell>
                <mxCell id="88" style="edgeStyle=orthogonalEdgeStyle;rounded=0;orthogonalLoop=1;jettySize=auto;html=1;exitX=1;exitY=0.5;exitDx=0;exitDy=0;entryX=0;entryY=0.5;entryDx=0;entryDy=0;endArrow=none;endFill=0;" parent="1" source="80" target="77" edge="1">
                    <mxGeometry relative="1" as="geometry">
                        <Array as="points">
                            <mxPoint x="540" y="65"/>
                        </Array>
                    </mxGeometry>
                </mxCell>
                <mxCell id="80" value="FrequenciaUso" style="ellipse;whiteSpace=wrap;html=1;" parent="1" vertex="1">
                    <mxGeometry x="440" y="40" width="100" height="30" as="geometry"/>
                </mxCell>
                <mxCell id="86" style="edgeStyle=orthogonalEdgeStyle;rounded=0;orthogonalLoop=1;jettySize=auto;html=1;exitX=0;exitY=0.5;exitDx=0;exitDy=0;entryX=1;entryY=0;entryDx=0;entryDy=0;endArrow=none;endFill=0;" parent="1" source="81" target="77" edge="1">
                    <mxGeometry relative="1" as="geometry"/>
                </mxCell>
                <mxCell id="81" value="Ducarao" style="ellipse;whiteSpace=wrap;html=1;" parent="1" vertex="1">
                    <mxGeometry x="690" width="80" height="30" as="geometry"/>
                </mxCell>
                <mxCell id="87" style="edgeStyle=orthogonalEdgeStyle;rounded=0;orthogonalLoop=1;jettySize=auto;html=1;exitX=0;exitY=0.5;exitDx=0;exitDy=0;entryX=1;entryY=0.5;entryDx=0;entryDy=0;endArrow=none;endFill=0;" parent="1" source="82" target="77" edge="1">
                    <mxGeometry relative="1" as="geometry"/>
                </mxCell>
                <mxCell id="82" value="DataInicio" style="ellipse;whiteSpace=wrap;html=1;" parent="1" vertex="1">
                    <mxGeometry x="690" y="50" width="80" height="30" as="geometry"/>
                </mxCell>
                <mxCell id="91" style="edgeStyle=orthogonalEdgeStyle;rounded=0;orthogonalLoop=1;jettySize=auto;html=1;exitX=1;exitY=0.5;exitDx=0;exitDy=0;entryX=0.5;entryY=1;entryDx=0;entryDy=0;endArrow=none;endFill=0;" parent="1" source="89" target="77" edge="1">
                    <mxGeometry relative="1" as="geometry"/>
                </mxCell>
                <mxCell id="89" value="Possui" style="rhombus;whiteSpace=wrap;html=1;fillColor=#786060;" parent="1" vertex="1">
                    <mxGeometry x="414" y="140" width="80" height="40" as="geometry"/>
                </mxCell>
                <mxCell id="99" style="edgeStyle=orthogonalEdgeStyle;rounded=0;orthogonalLoop=1;jettySize=auto;html=1;exitX=0;exitY=0.5;exitDx=0;exitDy=0;entryX=0.75;entryY=1;entryDx=0;entryDy=0;endArrow=none;endFill=0;startArrow=none;" parent="1" source="100" target="77" edge="1">
                    <mxGeometry relative="1" as="geometry"/>
                </mxCell>
                <mxCell id="92" value="Medicamento" style="whiteSpace=wrap;html=1;align=center;fillColor=#008a00;strokeColor=#FFFFFF;fontColor=#ffffff;shadow=0;glass=0;sketch=0;strokeWidth=3;" parent="1" vertex="1">
                    <mxGeometry x="795" y="240" width="100" height="40" as="geometry"/>
                </mxCell>
                <mxCell id="102" style="edgeStyle=orthogonalEdgeStyle;rounded=0;orthogonalLoop=1;jettySize=auto;html=1;exitX=1;exitY=0.5;exitDx=0;exitDy=0;entryX=0.25;entryY=0;entryDx=0;entryDy=0;endArrow=none;endFill=0;" parent="1" source="93" target="92" edge="1">
                    <mxGeometry relative="1" as="geometry"/>
                </mxCell>
                <mxCell id="93" value="Medicamento_ID" style="ellipse;whiteSpace=wrap;html=1;fontStyle=4" parent="1" vertex="1">
                    <mxGeometry x="680" y="170" width="100" height="30" as="geometry"/>
                </mxCell>
                <mxCell id="104" style="edgeStyle=orthogonalEdgeStyle;rounded=0;orthogonalLoop=1;jettySize=auto;html=1;entryX=0.25;entryY=1;entryDx=0;entryDy=0;endArrow=none;endFill=0;" parent="1" source="94" target="92" edge="1">
                    <mxGeometry relative="1" as="geometry">
                        <Array as="points">
                            <mxPoint x="820" y="295"/>
                        </Array>
                    </mxGeometry>
                </mxCell>
                <mxCell id="94" value="Nome" style="ellipse;whiteSpace=wrap;html=1;" parent="1" vertex="1">
                    <mxGeometry x="685" y="280" width="80" height="30" as="geometry"/>
                </mxCell>
                <mxCell id="126" style="edgeStyle=orthogonalEdgeStyle;rounded=0;orthogonalLoop=1;jettySize=auto;html=1;exitX=0.5;exitY=1;exitDx=0;exitDy=0;entryX=0;entryY=0.5;entryDx=0;entryDy=0;endArrow=none;endFill=0;" parent="1" source="95" target="92" edge="1">
                    <mxGeometry relative="1" as="geometry">
                        <Array as="points">
                            <mxPoint x="730" y="250"/>
                            <mxPoint x="795" y="250"/>
                        </Array>
                    </mxGeometry>
                </mxCell>
                <mxCell id="95" value="PrincipioAtivo" style="ellipse;whiteSpace=wrap;html=1;" parent="1" vertex="1">
                    <mxGeometry x="680" y="210" width="100" height="30" as="geometry"/>
                </mxCell>
                <mxCell id="107" style="edgeStyle=orthogonalEdgeStyle;rounded=0;orthogonalLoop=1;jettySize=auto;html=1;exitX=0;exitY=0.5;exitDx=0;exitDy=0;entryX=0.75;entryY=0;entryDx=0;entryDy=0;endArrow=none;endFill=0;" parent="1" source="96" target="92" edge="1">
                    <mxGeometry relative="1" as="geometry">
                        <Array as="points">
                            <mxPoint x="915" y="185"/>
                            <mxPoint x="915" y="220"/>
                            <mxPoint x="870" y="220"/>
                        </Array>
                    </mxGeometry>
                </mxCell>
                <mxCell id="96" value="Laboratorio" style="ellipse;whiteSpace=wrap;html=1;" parent="1" vertex="1">
                    <mxGeometry x="930" y="170" width="80" height="30" as="geometry"/>
                </mxCell>
                <mxCell id="106" style="edgeStyle=orthogonalEdgeStyle;rounded=0;orthogonalLoop=1;jettySize=auto;html=1;exitX=0;exitY=0.5;exitDx=0;exitDy=0;entryX=1;entryY=0.5;entryDx=0;entryDy=0;endArrow=none;endFill=0;" parent="1" source="97" target="92" edge="1">
                    <mxGeometry relative="1" as="geometry"/>
                </mxCell>
                <mxCell id="97" value="Dosagem" style="ellipse;whiteSpace=wrap;html=1;" parent="1" vertex="1">
                    <mxGeometry x="930" y="220" width="80" height="30" as="geometry"/>
                </mxCell>
                <mxCell id="143" style="edgeStyle=orthogonalEdgeStyle;rounded=0;orthogonalLoop=1;jettySize=auto;html=1;exitX=0.5;exitY=0;exitDx=0;exitDy=0;entryX=0;entryY=1;entryDx=0;entryDy=0;endArrow=none;endFill=0;" edge="1" parent="1" source="98" target="135">
                    <mxGeometry relative="1" as="geometry"/>
                </mxCell>
                <mxCell id="98" value="Validade" style="ellipse;whiteSpace=wrap;html=1;" parent="1" vertex="1">
                    <mxGeometry x="350" y="350" width="80" height="30" as="geometry"/>
                </mxCell>
                <mxCell id="100" value="Possui" style="rhombus;whiteSpace=wrap;html=1;fillColor=#786060;" parent="1" vertex="1">
                    <mxGeometry x="835" y="130" width="80" height="40" as="geometry"/>
                </mxCell>
                <mxCell id="101" value="" style="edgeStyle=orthogonalEdgeStyle;rounded=0;orthogonalLoop=1;jettySize=auto;html=1;exitX=0.5;exitY=0;exitDx=0;exitDy=0;entryX=0.5;entryY=1;entryDx=0;entryDy=0;endArrow=none;endFill=0;" parent="1" source="92" target="100" edge="1">
                    <mxGeometry relative="1" as="geometry">
                        <mxPoint x="845" y="240" as="sourcePoint"/>
                        <mxPoint x="970" y="45" as="targetPoint"/>
                    </mxGeometry>
                </mxCell>
                <mxCell id="137" style="edgeStyle=orthogonalEdgeStyle;rounded=0;orthogonalLoop=1;jettySize=auto;html=1;exitX=0.75;exitY=0;exitDx=0;exitDy=0;entryX=0.5;entryY=1;entryDx=0;entryDy=0;endArrow=none;endFill=0;" edge="1" parent="1" source="108" target="136">
                    <mxGeometry relative="1" as="geometry"/>
                </mxCell>
                <mxCell id="141" style="edgeStyle=orthogonalEdgeStyle;rounded=0;orthogonalLoop=1;jettySize=auto;html=1;exitX=1;exitY=0.5;exitDx=0;exitDy=0;entryX=0;entryY=0.5;entryDx=0;entryDy=0;endArrow=none;endFill=0;" edge="1" parent="1" source="108" target="119">
                    <mxGeometry relative="1" as="geometry"/>
                </mxCell>
                <mxCell id="142" style="edgeStyle=orthogonalEdgeStyle;rounded=0;orthogonalLoop=1;jettySize=auto;html=1;exitX=1;exitY=0.75;exitDx=0;exitDy=0;entryX=0;entryY=0.5;entryDx=0;entryDy=0;endArrow=none;endFill=0;" edge="1" parent="1" source="108" target="118">
                    <mxGeometry relative="1" as="geometry"/>
                </mxCell>
                <mxCell id="178" style="edgeStyle=orthogonalEdgeStyle;rounded=0;orthogonalLoop=1;jettySize=auto;html=1;exitX=0;exitY=0.25;exitDx=0;exitDy=0;entryX=1;entryY=0.5;entryDx=0;entryDy=0;endArrow=none;endFill=0;" edge="1" parent="1" source="108" target="113">
                    <mxGeometry relative="1" as="geometry"/>
                </mxCell>
                <mxCell id="108" value="Farmacia" style="whiteSpace=wrap;html=1;align=center;fillColor=#008a00;fontColor=#ffffff;perimeterSpacing=5;sketch=0;shadow=0;glass=0;strokeColor=#FFFFFF;strokeWidth=3;" parent="1" vertex="1">
                    <mxGeometry x="695" y="480" width="100" height="40" as="geometry"/>
                </mxCell>
                <mxCell id="148" style="edgeStyle=orthogonalEdgeStyle;rounded=0;orthogonalLoop=1;jettySize=auto;html=1;exitX=0.5;exitY=0;exitDx=0;exitDy=0;entryX=0.5;entryY=1;entryDx=0;entryDy=0;endArrow=none;endFill=0;" edge="1" parent="1" source="111" target="147">
                    <mxGeometry relative="1" as="geometry"/>
                </mxCell>
                <mxCell id="111" value="Funcionario" style="whiteSpace=wrap;html=1;align=center;fillColor=#008a00;fontColor=#ffffff;perimeterSpacing=5;sketch=0;shadow=0;glass=0;strokeColor=#FFFFFF;strokeWidth=3;" parent="1" vertex="1">
                    <mxGeometry x="469" y="610" width="100" height="40" as="geometry"/>
                </mxCell>
                <mxCell id="113" value="Possui" style="rhombus;whiteSpace=wrap;html=1;fillColor=#786060;" parent="1" vertex="1">
                    <mxGeometry x="430" y="420" width="80" height="40" as="geometry"/>
                </mxCell>
                <mxCell id="118" value="Farmacia_ID" style="ellipse;whiteSpace=wrap;html=1;fontStyle=4" parent="1" vertex="1">
                    <mxGeometry x="870" y="525" width="100" height="30" as="geometry"/>
                </mxCell>
                <mxCell id="119" value="Nome" style="ellipse;whiteSpace=wrap;html=1;" parent="1" vertex="1">
                    <mxGeometry x="870" y="445" width="100" height="30" as="geometry"/>
                </mxCell>
                <mxCell id="179" style="edgeStyle=orthogonalEdgeStyle;rounded=0;orthogonalLoop=1;jettySize=auto;html=1;entryX=0.5;entryY=1;entryDx=0;entryDy=0;endArrow=none;endFill=0;exitX=0;exitY=0;exitDx=0;exitDy=0;" edge="1" parent="1" source="120" target="108">
                    <mxGeometry relative="1" as="geometry">
                        <Array as="points">
                            <mxPoint x="742" y="545"/>
                            <mxPoint x="745" y="545"/>
                        </Array>
                    </mxGeometry>
                </mxCell>
                <mxCell id="120" value="Avaliacao" style="ellipse;whiteSpace=wrap;html=1;" parent="1" vertex="1">
                    <mxGeometry x="730" y="570" width="80" height="30" as="geometry"/>
                </mxCell>
                <mxCell id="133" style="edgeStyle=orthogonalEdgeStyle;rounded=0;orthogonalLoop=1;jettySize=auto;html=1;exitX=1;exitY=0.5;exitDx=0;exitDy=0;entryX=0;entryY=0.5;entryDx=0;entryDy=0;endArrow=none;endFill=0;" edge="1" parent="1" source="135" target="92">
                    <mxGeometry relative="1" as="geometry">
                        <mxPoint x="500" y="229.9999999999999" as="sourcePoint"/>
                    </mxGeometry>
                </mxCell>
                <mxCell id="144" style="edgeStyle=orthogonalEdgeStyle;rounded=0;orthogonalLoop=1;jettySize=auto;html=1;exitX=0.5;exitY=0;exitDx=0;exitDy=0;entryX=1;entryY=1;entryDx=0;entryDy=0;endArrow=none;endFill=0;" edge="1" parent="1" source="132" target="135">
                    <mxGeometry relative="1" as="geometry"/>
                </mxCell>
                <mxCell id="132" value="Quantidade" style="ellipse;whiteSpace=wrap;html=1;" vertex="1" parent="1">
                    <mxGeometry x="450" y="350" width="80" height="30" as="geometry"/>
                </mxCell>
                <mxCell id="135" value="Possui" style="rhombus;whiteSpace=wrap;html=1;fillColor=#786060;" vertex="1" parent="1">
                    <mxGeometry x="400" y="210" width="80" height="40" as="geometry"/>
                </mxCell>
                <mxCell id="138" style="edgeStyle=orthogonalEdgeStyle;rounded=0;orthogonalLoop=1;jettySize=auto;html=1;exitX=0.5;exitY=0;exitDx=0;exitDy=0;entryX=0.45;entryY=1;entryDx=0;entryDy=0;entryPerimeter=0;endArrow=none;endFill=0;" edge="1" parent="1" source="136" target="92">
                    <mxGeometry relative="1" as="geometry">
                        <Array as="points">
                            <mxPoint x="790" y="350"/>
                            <mxPoint x="840" y="350"/>
                        </Array>
                    </mxGeometry>
                </mxCell>
                <mxCell id="136" value="Possui" style="rhombus;whiteSpace=wrap;html=1;fillColor=#786060;" vertex="1" parent="1">
                    <mxGeometry x="750" y="390" width="80" height="40" as="geometry"/>
                </mxCell>
                <mxCell id="140" style="edgeStyle=orthogonalEdgeStyle;rounded=0;orthogonalLoop=1;jettySize=auto;html=1;exitX=1;exitY=0.5;exitDx=0;exitDy=0;entryX=0;entryY=0.5;entryDx=0;entryDy=0;endArrow=none;endFill=0;" edge="1" parent="1" source="139" target="136">
                    <mxGeometry relative="1" as="geometry"/>
                </mxCell>
                <mxCell id="139" value="Preco" style="ellipse;whiteSpace=wrap;html=1;" vertex="1" parent="1">
                    <mxGeometry x="580" y="360" width="80" height="30" as="geometry"/>
                </mxCell>
                <mxCell id="146" style="edgeStyle=orthogonalEdgeStyle;rounded=0;orthogonalLoop=1;jettySize=auto;html=1;exitX=1;exitY=0.5;exitDx=0;exitDy=0;entryX=0;entryY=0;entryDx=0;entryDy=0;endArrow=none;endFill=0;" edge="1" parent="1" source="145" target="136">
                    <mxGeometry relative="1" as="geometry">
                        <Array as="points">
                            <mxPoint x="660" y="350"/>
                            <mxPoint x="770" y="350"/>
                        </Array>
                    </mxGeometry>
                </mxCell>
                <mxCell id="145" value="Desconto" style="ellipse;whiteSpace=wrap;html=1;" vertex="1" parent="1">
                    <mxGeometry x="580" y="310" width="80" height="30" as="geometry"/>
                </mxCell>
                <mxCell id="149" style="edgeStyle=orthogonalEdgeStyle;rounded=0;orthogonalLoop=1;jettySize=auto;html=1;exitX=1;exitY=0.5;exitDx=0;exitDy=0;entryX=0;entryY=0.75;entryDx=0;entryDy=0;endArrow=none;endFill=0;" edge="1" parent="1" source="147" target="108">
                    <mxGeometry relative="1" as="geometry"/>
                </mxCell>
                <mxCell id="147" value="Trabalha" style="rhombus;whiteSpace=wrap;html=1;fillColor=#786060;" vertex="1" parent="1">
                    <mxGeometry x="480" y="490" width="80" height="40" as="geometry"/>
                </mxCell>
                <mxCell id="154" style="edgeStyle=orthogonalEdgeStyle;rounded=0;orthogonalLoop=1;jettySize=auto;html=1;exitX=0.5;exitY=0;exitDx=0;exitDy=0;entryX=0.25;entryY=1;entryDx=0;entryDy=0;endArrow=none;endFill=0;" edge="1" parent="1" source="150" target="111">
                    <mxGeometry relative="1" as="geometry"/>
                </mxCell>
                <mxCell id="150" value="&lt;u&gt;CPF&lt;/u&gt;" style="ellipse;whiteSpace=wrap;html=1;" vertex="1" parent="1">
                    <mxGeometry x="414" y="700" width="80" height="30" as="geometry"/>
                </mxCell>
                <mxCell id="155" style="edgeStyle=orthogonalEdgeStyle;rounded=0;orthogonalLoop=1;jettySize=auto;html=1;exitX=0;exitY=0;exitDx=0;exitDy=0;entryX=0.5;entryY=1;entryDx=0;entryDy=0;endArrow=none;endFill=0;" edge="1" parent="1" source="151" target="111">
                    <mxGeometry relative="1" as="geometry"/>
                </mxCell>
                <mxCell id="151" value="Nome" style="ellipse;whiteSpace=wrap;html=1;" vertex="1" parent="1">
                    <mxGeometry x="524" y="700" width="80" height="30" as="geometry"/>
                </mxCell>
                <mxCell id="156" style="edgeStyle=orthogonalEdgeStyle;rounded=0;orthogonalLoop=1;jettySize=auto;html=1;exitX=0;exitY=0.5;exitDx=0;exitDy=0;entryX=0.75;entryY=1;entryDx=0;entryDy=0;endArrow=none;endFill=0;" edge="1" parent="1" source="152" target="111">
                    <mxGeometry relative="1" as="geometry"/>
                </mxCell>
                <mxCell id="152" value="Status" style="ellipse;whiteSpace=wrap;html=1;" vertex="1" parent="1">
                    <mxGeometry x="636" y="660" width="80" height="30" as="geometry"/>
                </mxCell>
                <mxCell id="157" style="edgeStyle=orthogonalEdgeStyle;rounded=0;orthogonalLoop=1;jettySize=auto;html=1;exitX=0;exitY=0.5;exitDx=0;exitDy=0;entryX=1;entryY=0.5;entryDx=0;entryDy=0;endArrow=none;endFill=0;" edge="1" parent="1" source="153" target="111">
                    <mxGeometry relative="1" as="geometry"/>
                </mxCell>
                <mxCell id="153" value="Tipo" style="ellipse;whiteSpace=wrap;html=1;" vertex="1" parent="1">
                    <mxGeometry x="639" y="600" width="80" height="30" as="geometry"/>
                </mxCell>
                <mxCell id="158" value="1,1" style="text;html=1;strokeColor=none;fillColor=none;align=center;verticalAlign=middle;whiteSpace=wrap;rounded=0;" vertex="1" parent="1">
                    <mxGeometry x="230" y="175" width="40" height="20" as="geometry"/>
                </mxCell>
                <mxCell id="159" value="1,1" style="text;html=1;strokeColor=none;fillColor=none;align=center;verticalAlign=middle;whiteSpace=wrap;rounded=0;" vertex="1" parent="1">
                    <mxGeometry x="380" y="140" width="40" height="20" as="geometry"/>
                </mxCell>
                <mxCell id="160" value="0,n" style="text;html=1;strokeColor=none;fillColor=none;align=center;verticalAlign=middle;whiteSpace=wrap;rounded=0;" vertex="1" parent="1">
                    <mxGeometry x="490" y="140" width="40" height="20" as="geometry"/>
                </mxCell>
                <mxCell id="161" value="0,n" style="text;html=1;strokeColor=none;fillColor=none;align=center;verticalAlign=middle;whiteSpace=wrap;rounded=0;" vertex="1" parent="1">
                    <mxGeometry x="370" y="210" width="40" height="20" as="geometry"/>
                </mxCell>
                <mxCell id="162" value="0,n" style="text;html=1;strokeColor=none;fillColor=none;align=center;verticalAlign=middle;whiteSpace=wrap;rounded=0;" vertex="1" parent="1">
                    <mxGeometry x="480" y="210" width="40" height="20" as="geometry"/>
                </mxCell>
                <mxCell id="163" value="1,1" style="text;html=1;strokeColor=none;fillColor=none;align=center;verticalAlign=middle;whiteSpace=wrap;rounded=0;" vertex="1" parent="1">
                    <mxGeometry x="150" y="440" width="40" height="20" as="geometry"/>
                </mxCell>
                <mxCell id="164" value="0,n" style="text;html=1;strokeColor=none;fillColor=none;align=center;verticalAlign=middle;whiteSpace=wrap;rounded=0;" vertex="1" parent="1">
                    <mxGeometry x="220" y="400" width="40" height="20" as="geometry"/>
                </mxCell>
                <mxCell id="165" value="0,n" style="text;html=1;strokeColor=none;fillColor=none;align=center;verticalAlign=middle;whiteSpace=wrap;rounded=0;" vertex="1" parent="1">
                    <mxGeometry x="220" y="440" width="40" height="20" as="geometry"/>
                </mxCell>
                <mxCell id="166" value="1,1" style="text;html=1;strokeColor=none;fillColor=none;align=center;verticalAlign=middle;whiteSpace=wrap;rounded=0;" vertex="1" parent="1">
                    <mxGeometry x="310" y="460" width="40" height="20" as="geometry"/>
                </mxCell>
                <mxCell id="167" value="1,1" style="text;html=1;strokeColor=none;fillColor=none;align=center;verticalAlign=middle;whiteSpace=wrap;rounded=0;" vertex="1" parent="1">
                    <mxGeometry x="400" y="420" width="40" height="20" as="geometry"/>
                </mxCell>
                <mxCell id="168" value="1,1" style="text;html=1;strokeColor=none;fillColor=none;align=center;verticalAlign=middle;whiteSpace=wrap;rounded=0;" vertex="1" parent="1">
                    <mxGeometry x="510" y="420" width="40" height="20" as="geometry"/>
                </mxCell>
                <mxCell id="169" value="0,n" style="text;html=1;strokeColor=none;fillColor=none;align=center;verticalAlign=middle;whiteSpace=wrap;rounded=0;" vertex="1" parent="1">
                    <mxGeometry x="480" y="530" width="40" height="20" as="geometry"/>
                </mxCell>
                <mxCell id="170" value="1,1" style="text;html=1;strokeColor=none;fillColor=none;align=center;verticalAlign=middle;whiteSpace=wrap;rounded=0;" vertex="1" parent="1">
                    <mxGeometry x="550" y="480" width="40" height="20" as="geometry"/>
                </mxCell>
                <mxCell id="171" value="0,n" style="text;html=1;strokeColor=none;fillColor=none;align=center;verticalAlign=middle;whiteSpace=wrap;rounded=0;" vertex="1" parent="1">
                    <mxGeometry x="790" y="370" width="40" height="20" as="geometry"/>
                </mxCell>
                <mxCell id="172" value="0,n" style="text;html=1;strokeColor=none;fillColor=none;align=center;verticalAlign=middle;whiteSpace=wrap;rounded=0;" vertex="1" parent="1">
                    <mxGeometry x="780" y="430" width="40" height="20" as="geometry"/>
                </mxCell>
                <mxCell id="173" value="1,1" style="text;html=1;strokeColor=none;fillColor=none;align=center;verticalAlign=middle;whiteSpace=wrap;rounded=0;" vertex="1" parent="1">
                    <mxGeometry x="835" y="175" width="40" height="20" as="geometry"/>
                </mxCell>
                <mxCell id="174" value="0,n" style="text;html=1;strokeColor=none;fillColor=none;align=center;verticalAlign=middle;whiteSpace=wrap;rounded=0;" vertex="1" parent="1">
                    <mxGeometry x="800" y="125" width="40" height="20" as="geometry"/>
                </mxCell>
            </root>
        </mxGraphModel>
    </diagram>
</mxfile>